<svg width="" height="" viewBox="0 0 178 90" fill="none" xmlns="http://www.w3.org/2000/svg">
    <g clip-path="url(#clip0_5111_382213)">
        <g clip-path="url(#clip1_5111_382213)">
            <g clip-path="url(#clip2_5111_382213)">
                <path d="M40.3032 11.1879H137.188C137.836 11.1879 138.457 11.4379 138.915 11.8831C139.373 12.3282 139.63 12.932 139.63 13.5615V80.4696H37.8618V13.5615C37.8618 12.932 38.119 12.3282 38.5769 11.8831C39.0347 11.4379 39.6557 11.1879 40.3032 11.1879V11.1879Z" fill="#4F4F4F"/>
                <path d="M135.766 15.1007H41.774C41.1103 15.1007 40.5723 15.6388 40.5723 16.3025V71.6771C40.5723 72.3408 41.1103 72.8789 41.774 72.8789H135.766C136.43 72.8789 136.968 72.3408 136.968 71.6771V16.3025C136.968 15.6388 136.43 15.1007 135.766 15.1007Z" fill="#393939"/>
                <path d="M143.885 80.9599L33.6566 80.9599C33.0201 80.9599 32.4097 80.7071 31.9596 80.257C31.5095 79.8069 31.2566 79.1965 31.2566 78.5599V76.0637L146.285 76.0637V78.5599C146.285 79.1965 146.032 79.8069 145.582 80.257C145.132 80.7071 144.522 80.9599 143.885 80.9599V80.9599Z" fill="#606060"/>
                <path d="M147.41 30.7458H122.724C121.259 30.7458 120.072 31.9332 120.072 33.3978V82.3293C120.072 83.7939 121.259 84.9812 122.724 84.9812H147.41C148.875 84.9812 150.062 83.7939 150.062 82.3293V33.3978C150.062 31.9332 148.875 30.7458 147.41 30.7458Z" fill="#505050"/>
                <path d="M148.249 81.5094V34.3469C148.249 33.6397 147.674 33.0663 146.966 33.0663H123.011C122.303 33.0663 121.729 33.6397 121.729 34.3469V81.5094C121.729 82.2167 122.303 82.7901 123.011 82.7901H146.966C147.674 82.7901 148.249 82.2167 148.249 81.5094Z" fill="#393939"/>
            </g>
            <g filter="url(#filter0_i_5111_382213)">
                <path d="M108.628 56.2706H61.2384C60.5773 56.2706 59.9432 56.0081 59.4757 55.5408C59.0082 55.0735 58.7456 54.4397 58.7456 53.7788V6.3867C58.7456 5.72581 59.0082 5.09203 59.4757 4.62472C59.9432 4.1574 60.5773 3.89491 61.2384 3.89491H108.628C108.956 3.89491 109.28 3.95925 109.583 4.08448C109.885 4.20971 110.16 4.39332 110.391 4.62472C110.623 4.85611 110.806 5.13081 110.932 5.43314C111.057 5.73546 111.121 6.05946 111.121 6.3867V53.7695C111.123 54.0975 111.059 54.4226 110.934 54.726C110.81 55.0294 110.626 55.3052 110.395 55.5376C110.163 55.77 109.888 55.9543 109.585 56.0801C109.282 56.2059 108.957 56.2706 108.628 56.2706V56.2706Z" fill="url(#paint0_linear_5111_382213)"/>
                <path d="M93.6633 21.3195C94.6493 21.3195 95.6132 21.0273 96.433 20.4796C97.2529 19.932 97.8919 19.1537 98.2693 18.243C98.6466 17.3324 98.7453 16.3302 98.5529 15.3634C98.3606 14.3967 97.8858 13.5087 97.1885 12.8117C96.4913 12.1147 95.603 11.6401 94.6359 11.4478C93.6688 11.2555 92.6664 11.3543 91.7554 11.7315C90.8444 12.1087 90.0658 12.7475 89.518 13.5671C88.9702 14.3866 88.6777 15.35 88.6777 16.3357C88.6777 17.6575 89.203 18.9253 90.138 19.8599C91.0729 20.7945 92.3411 21.3195 93.6633 21.3195Z" fill="#F1F1F1"/>
                <path d="M111.121 43.8019V53.7786C111.123 54.1048 111.059 54.4281 110.934 54.7294C110.809 55.0307 110.625 55.3039 110.392 55.533C110.162 55.7668 109.887 55.9526 109.584 56.0792C109.281 56.2058 108.956 56.2707 108.628 56.2704H77.4453V42.5512L87.4256 32.5838L90.1331 29.8771C90.5962 29.4132 91.1462 29.0453 91.7517 28.7941C92.3573 28.543 93.0066 28.4136 93.6622 28.4136C94.3178 28.4136 94.9669 28.543 95.5725 28.7941C96.178 29.0453 96.7281 29.4132 97.1911 29.8771L111.121 43.8019Z" fill="#376CD3"/>
                <path d="M110.393 55.5333C110.163 55.7671 109.888 55.9529 109.585 56.0794C109.282 56.206 108.957 56.2709 108.628 56.2706H61.2384C60.578 56.2682 59.9454 56.0049 59.4784 55.5381C59.0115 55.0713 58.7481 54.439 58.7456 53.7788V36.3171L71.424 23.6431C71.8871 23.1792 72.4372 22.8112 73.0428 22.5601C73.6484 22.309 74.2975 22.1796 74.9531 22.1796C75.6087 22.1796 76.2579 22.309 76.8634 22.5601C77.469 22.8112 78.0191 23.1792 78.4822 23.6431L87.4262 32.584L110.393 55.5333Z" fill="url(#paint1_linear_5111_382213)"/>
            </g>
            <g filter="url(#filter1_d_5111_382213)">
                <path d="M143.419 67.2497H126.592C126.357 67.2497 126.132 67.1564 125.966 66.9905C125.8 66.8245 125.707 66.5994 125.707 66.3646V49.5315C125.707 49.2967 125.8 49.0716 125.966 48.9056C126.132 48.7396 126.357 48.6464 126.592 48.6464H143.419C143.535 48.6464 143.65 48.6693 143.757 48.7137C143.865 48.7582 143.962 48.8234 144.044 48.9056C144.127 48.9878 144.192 49.0854 144.236 49.1928C144.281 49.3002 144.304 49.4152 144.304 49.5315V66.3613C144.304 66.4778 144.282 66.5933 144.237 66.7011C144.193 66.8088 144.128 66.9068 144.046 66.9893C143.963 67.0719 143.866 67.1373 143.758 67.182C143.651 67.2267 143.535 67.2497 143.419 67.2497V67.2497Z" fill="url(#paint2_linear_5111_382213)"/>
                <path d="M138.105 54.8353C138.455 54.8353 138.797 54.7315 139.089 54.537C139.38 54.3424 139.607 54.066 139.741 53.7425C139.875 53.4191 139.91 53.0631 139.841 52.7197C139.773 52.3764 139.604 52.061 139.357 51.8134C139.109 51.5658 138.794 51.3972 138.45 51.3289C138.107 51.2606 137.751 51.2957 137.428 51.4297C137.104 51.5637 136.828 51.7906 136.633 52.0817C136.439 52.3728 136.335 52.715 136.335 53.0651C136.335 53.5345 136.521 53.9849 136.853 54.3168C137.185 54.6488 137.636 54.8353 138.105 54.8353Z" fill="#F1F1F1"/>
                <path d="M144.304 62.8209V66.3645C144.304 66.4804 144.282 66.5952 144.237 66.7023C144.193 66.8093 144.127 66.9063 144.045 66.9877C143.963 67.0708 143.866 67.1367 143.758 67.1817C143.651 67.2267 143.535 67.2497 143.418 67.2496H132.347V62.3767L135.89 58.8364L136.852 57.875C137.016 57.7102 137.211 57.5795 137.426 57.4903C137.641 57.4012 137.872 57.3552 138.105 57.3552C138.337 57.3552 138.568 57.4012 138.783 57.4903C138.998 57.5795 139.193 57.7102 139.358 57.875L144.304 62.8209Z" fill="#376CD3"/>
                <path d="M144.045 66.9878C143.963 67.0708 143.866 67.1368 143.758 67.1818C143.651 67.2267 143.535 67.2498 143.419 67.2497H126.592C126.358 67.2488 126.133 67.1553 125.967 66.9895C125.801 66.8237 125.708 66.5991 125.707 66.3646V60.1624L130.209 55.6607C130.373 55.496 130.568 55.3653 130.783 55.2761C130.998 55.1869 131.229 55.1409 131.462 55.1409C131.695 55.1409 131.925 55.1869 132.14 55.2761C132.355 55.3653 132.55 55.496 132.715 55.6607L135.89 58.8365L144.045 66.9878Z" fill="url(#paint3_linear_5111_382213)"/>
            </g>
        </g>
    </g>
    <defs>
        <filter id="filter0_i_5111_382213" x="54.7456" y="0.894905" width="56.376" height="55.3758" filterUnits="userSpaceOnUse" color-interpolation-filters="sRGB">
            <feFlood flood-opacity="0" result="BackgroundImageFix"/>
            <feBlend mode="normal" in="SourceGraphic" in2="BackgroundImageFix" result="shape"/>
            <feColorMatrix in="SourceAlpha" type="matrix" values="0 0 0 0 0 0 0 0 0 0 0 0 0 0 0 0 0 0 127 0" result="hardAlpha"/>
            <feOffset dx="-4" dy="-3"/>
            <feGaussianBlur stdDeviation="3.5"/>
            <feComposite in2="hardAlpha" operator="arithmetic" k2="-1" k3="1"/>
            <feColorMatrix type="matrix" values="0 0 0 0 0 0 0 0 0 0 0 0 0 0 0 0 0 0 0.05 0"/>
            <feBlend mode="normal" in2="shape" result="effect1_innerShadow_5111_382213"/>
        </filter>
        <filter id="filter1_d_5111_382213" x="120.707" y="48.6464" width="28.5967" height="28.6033" filterUnits="userSpaceOnUse" color-interpolation-filters="sRGB">
            <feFlood flood-opacity="0" result="BackgroundImageFix"/>
            <feColorMatrix in="SourceAlpha" type="matrix" values="0 0 0 0 0 0 0 0 0 0 0 0 0 0 0 0 0 0 127 0" result="hardAlpha"/>
            <feOffset dy="5"/>
            <feGaussianBlur stdDeviation="2.5"/>
            <feComposite in2="hardAlpha" operator="out"/>
            <feColorMatrix type="matrix" values="0 0 0 0 0 0 0 0 0 0 0 0 0 0 0 0 0 0 0.1 0"/>
            <feBlend mode="normal" in2="BackgroundImageFix" result="effect1_dropShadow_5111_382213"/>
            <feBlend mode="normal" in="SourceGraphic" in2="effect1_dropShadow_5111_382213" result="shape"/>
        </filter>
        <linearGradient id="paint0_linear_5111_382213" x1="102.364" y1="60.265" x2="67.5215" y2="-0.110282" gradientUnits="userSpaceOnUse">
            <stop stop-color="#B67AE8"/>
            <stop offset="0.21" stop-color="#8B89EA"/>
            <stop offset="0.66" stop-color="#00ADEE"/>
            <stop offset="0.71" stop-color="#00B0EF"/>
        </linearGradient>
        <linearGradient id="paint1_linear_5111_382213" x1="91.3007" y1="66.6487" x2="67.6275" y2="25.6331" gradientUnits="userSpaceOnUse">
            <stop offset="0.3" stop-color="#073977"/>
            <stop offset="1" stop-color="#004A8F"/>
        </linearGradient>
        <linearGradient id="paint2_linear_5111_382213" x1="141.194" y1="68.6685" x2="128.816" y2="47.2276" gradientUnits="userSpaceOnUse">
            <stop stop-color="#B67AE8"/>
            <stop offset="0.21" stop-color="#8B89EA"/>
            <stop offset="0.66" stop-color="#00ADEE"/>
            <stop offset="0.71" stop-color="#00B0EF"/>
        </linearGradient>
        <linearGradient id="paint3_linear_5111_382213" x1="137.266" y1="70.9359" x2="128.856" y2="56.3701" gradientUnits="userSpaceOnUse">
            <stop offset="0.3" stop-color="#073977"/>
            <stop offset="1" stop-color="#004A8F"/>
        </linearGradient>
        <clipPath id="clip0_5111_382213">
            <rect width="178" height="90" fill="white"/>
        </clipPath>
        <clipPath id="clip1_5111_382213">
            <rect width="151.16" height="120" fill="white" transform="translate(13 -15)"/>
        </clipPath>
        <clipPath id="clip2_5111_382213">
            <rect width="151.16" height="120" fill="white" transform="translate(13 -15)"/>
        </clipPath>
    </defs>
</svg>
